<?xml version="1.0" standalone="no"?>
<!DOCTYPE svg PUBLIC "-//W3C//DTD SVG 20010904//EN"
 "http://www.w3.org/TR/2001/REC-SVG-20010904/DTD/svg10.dtd">
<svg version="1.0" xmlns="http://www.w3.org/2000/svg"
 width="500.000000pt" height="500.000000pt" viewBox="0 0 500.000000 500.000000"
 preserveAspectRatio="xMidYMid meet">

<g transform="translate(0.000000,500.000000) scale(0.100000,-0.100000)"
fill="#000000" stroke="none">
<path d="M2375 4970 c-144 -12 -398 -58 -528 -96 -167 -49 -258 -95 -335 -171
-36 -35 -95 -79 -138 -102 -106 -57 -215 -132 -309 -211 -131 -111 -187 -176
-240 -280 -42 -81 -65 -111 -155 -200 -196 -195 -349 -431 -454 -701 -81 -206
-124 -494 -113 -749 21 -457 141 -819 407 -1217 249 -375 490 -590 819 -734
53 -23 125 -61 161 -84 70 -46 234 -185 226 -192 -2 -3 -56 16 -118 41 -62 25
-136 50 -165 55 -72 14 -111 32 -206 94 -101 66 -213 155 -308 244 -66 62 -85
70 -37 16 14 -15 17 -26 11 -37 -7 -14 -23 -2 -90 66 -99 102 -121 128 -211
249 -176 238 -320 523 -428 843 -53 158 -56 147 -9 -31 109 -415 309 -768 600
-1058 219 -221 432 -364 695 -470 318 -128 649 -186 944 -164 346 26 899 238
1237 474 42 30 107 72 145 95 38 23 107 79 154 124 128 122 280 258 280 251 0
-3 -26 -41 -59 -83 -57 -75 -124 -142 -269 -270 -40 -35 -72 -68 -72 -73 0 -5
16 -9 36 -9 85 0 271 149 405 325 276 360 418 780 422 1250 2 153 0 173 -18
202 l-19 33 -13 -23 c-11 -20 -12 -15 -13 38 0 33 -5 112 -11 175 -69 748
-522 1399 -1199 1724 -119 57 -338 134 -446 156 -71 14 -74 20 -74 135 l0 63
108 -23 c236 -50 304 -80 323 -145 7 -22 17 -44 24 -50 6 -5 51 -23 101 -41
154 -54 210 -89 420 -265 187 -157 262 -233 344 -348 94 -133 126 -173 134
-166 10 11 -42 106 -101 185 -80 105 -274 293 -393 382 -99 74 -127 99 -117
109 8 8 182 -85 276 -148 176 -118 334 -271 453 -439 87 -120 206 -360 257
-514 60 -181 72 -265 78 -547 6 -266 6 -267 60 -247 49 18 62 256 25 459 -86
468 -308 888 -645 1222 -166 165 -381 315 -551 384 -84 34 -504 149 -686 188
l-105 22 -3 53 c-2 29 1 73 6 97 9 42 8 46 -19 68 -73 62 -253 86 -494 66z
m122 -276 c-3 -3 -12 -4 -19 -1 -8 3 -5 6 6 6 11 1 17 -2 13 -5z m-40 -10 c-3
-3 -12 -4 -19 -1 -8 3 -5 6 6 6 11 1 17 -2 13 -5z m-40 -10 c-3 -3 -12 -4 -19
-1 -8 3 -5 6 6 6 11 1 17 -2 13 -5z m-44 -11 c-7 -2 -19 -2 -25 0 -7 3 -2 5
12 5 14 0 19 -2 13 -5z m-50 -10 c-7 -2 -19 -2 -25 0 -7 3 -2 5 12 5 14 0 19
-2 13 -5z m-50 -10 c-7 -2 -21 -2 -30 0 -10 3 -4 5 12 5 17 0 24 -2 18 -5z
m-60 -10 c-7 -2 -21 -2 -30 0 -10 3 -4 5 12 5 17 0 24 -2 18 -5z m-65 -10
c-10 -2 -26 -2 -35 0 -10 3 -2 5 17 5 19 0 27 -2 18 -5z m-80 -10 c-10 -2 -26
-2 -35 0 -10 3 -2 5 17 5 19 0 27 -2 18 -5z m-100 -10 c-16 -2 -40 -2 -55 0
-16 2 -3 4 27 4 30 0 43 -2 28 -4z m-429 -100 l20 -52 -87 -47 c-191 -104
-327 -203 -490 -356 -141 -133 -301 -272 -307 -266 -25 24 286 335 535 535 96
77 184 150 195 163 19 22 106 82 111 77 1 -1 12 -25 23 -54z m40 -127 c6 -25
11 -47 11 -50 0 -2 -44 -28 -97 -56 -87 -46 -230 -139 -333 -217 -19 -14 -11
-4 19 23 46 42 235 185 311 235 14 9 22 20 18 24 -4 4 -66 -22 -137 -57 -72
-36 -131 -62 -131 -58 0 14 299 200 321 200 4 0 12 -20 18 -44z m2684 -396
c-7 -7 -83 80 -83 94 0 6 20 -11 44 -39 24 -27 42 -52 39 -55z m-898 -20 c-3
-5 -15 -10 -26 -10 -10 0 -19 5 -19 10 0 6 12 10 26 10 14 0 23 -4 19 -10z
m62 -100 c59 -13 62 -30 5 -29 -20 1 -50 -4 -66 -10 -36 -14 -38 -12 -30 28 5
23 11 30 23 27 9 -2 40 -10 68 -16z m-225 -240 c-4 -36 -1 -41 31 -60 19 -12
37 -26 40 -33 3 -7 40 -31 83 -52 87 -45 176 -126 213 -195 l24 -45 -54 51
c-55 53 -105 84 -134 84 -23 0 85 -98 190 -172 102 -73 191 -167 246 -259 42
-71 131 -260 125 -267 -2 -2 -25 3 -52 11 -46 13 -47 15 -61 68 -30 122 -119
251 -200 291 -18 9 -33 15 -33 14 0 -2 20 -34 45 -72 44 -66 96 -185 109 -250
l7 -31 -168 -6 c-145 -5 -183 -10 -282 -36 -63 -17 -117 -34 -120 -38 -3 -3 7
-3 22 1 93 22 241 36 392 36 94 0 180 -3 192 -6 18 -5 22 -16 28 -67 4 -34 11
-68 15 -76 9 -17 22 86 14 116 -6 22 -4 23 42 17 27 -4 54 -12 61 -18 29 -28
98 -306 109 -442 7 -86 -3 -237 -15 -230 -4 3 -8 39 -10 82 -3 114 -43 325
-59 310 -3 -4 -9 -28 -13 -54 -12 -77 -33 -150 -44 -154 -6 -2 -13 27 -17 67
-6 64 -21 125 -32 125 -2 0 -14 -15 -25 -32 -11 -18 -25 -39 -29 -46 -7 -11
-29 -2 -100 41 -133 80 -370 149 -506 146 -47 -1 -43 -2 44 -19 153 -28 249
-58 355 -111 100 -50 195 -112 195 -128 0 -5 -18 -28 -39 -52 l-39 -44 -11 40
c-7 22 -24 64 -40 94 l-28 55 4 -125 c3 -131 -8 -228 -38 -319 -10 -30 -16
-56 -15 -58 2 -1 31 23 65 55 68 65 72 61 41 -39 -19 -62 -81 -170 -112 -195
-13 -12 -14 -4 -10 62 6 91 -5 92 -58 8 -47 -75 -172 -202 -243 -248 -32 -20
-61 -34 -64 -32 -2 3 8 28 22 57 43 85 29 82 -138 -35 l-108 -75 7 36 7 37
-57 -32 c-34 -20 -56 -28 -56 -20 0 7 18 46 41 87 38 69 39 73 17 67 -64 -19
-166 -103 -195 -160 -14 -28 -13 -28 28 11 47 43 88 74 101 74 5 0 -8 -32 -28
-71 -19 -39 -33 -74 -29 -77 3 -3 35 8 71 26 l65 32 -7 -35 c-3 -19 -2 -35 2
-35 5 0 56 34 113 75 58 41 109 75 114 75 5 0 -1 -15 -12 -34 -41 -66 -26 -68
86 -15 99 48 195 134 275 249 16 24 17 23 2 -25 -26 -89 -27 -95 -14 -95 6 0
38 25 70 56 54 52 98 122 139 224 8 21 10 16 10 -32 1 -32 5 -58 10 -58 15 0
67 68 99 129 25 46 48 110 78 210 3 8 7 12 9 9 11 -11 35 -149 45 -263 6 -66
16 -137 21 -159 14 -52 6 -55 -25 -10 -24 35 -42 82 -62 159 -6 24 -9 11 -15
-60 -11 -136 -83 -396 -124 -451 -13 -17 -14 -12 -15 57 0 42 -3 98 -7 125
l-6 49 -14 -70 c-19 -93 -63 -197 -120 -281 l-46 -69 34 26 c19 15 53 54 77
88 23 35 42 54 42 45 0 -41 -48 -110 -148 -215 l-107 -111 -40 11 c-95 26
-206 6 -345 -64 -48 -24 -113 -51 -146 -60 -84 -23 -300 -30 -389 -12 l-70 14
83 12 c45 7 99 19 120 27 32 12 33 14 7 9 -16 -3 -75 -8 -131 -12 -88 -5 -109
-3 -167 16 -37 13 -100 44 -140 70 -87 57 -295 255 -357 340 -24 33 -46 59
-48 57 -7 -7 27 -76 66 -133 22 -32 81 -98 131 -146 51 -48 86 -87 78 -87 -21
0 -225 120 -297 174 -78 60 -185 167 -208 210 -9 17 -19 63 -22 101 l-6 70
-13 -45 c-19 -63 -10 -182 17 -244 12 -27 20 -51 18 -53 -2 -3 -29 26 -60 62
-102 125 -162 271 -173 425 l-7 85 -17 -55 c-10 -30 -18 -86 -19 -125 l-2 -70
-30 62 c-21 45 -31 83 -35 137 -6 77 -16 90 -28 36 -16 -71 -35 -7 -35 115 0
95 31 226 44 184 26 -89 72 -169 97 -169 4 0 6 35 3 78 -3 42 -1 91 4 107 9
29 9 29 21 -25 15 -69 49 -140 66 -140 12 0 20 23 28 89 2 14 12 1 102 -137
30 -47 71 -92 114 -126 36 -29 72 -61 80 -70 8 -9 27 -26 42 -36 l27 -20 -10
43 c-14 61 -14 174 1 237 24 101 79 197 160 280 69 70 89 84 212 144 74 36
140 66 147 66 6 0 14 4 17 10 3 5 0 8 -7 6 -7 -3 -51 -16 -97 -31 -46 -14
-115 -42 -153 -61 l-69 -35 16 30 c8 17 15 33 15 36 0 8 -101 -44 -138 -72
-18 -14 -35 -23 -37 -21 -7 7 75 127 101 147 22 17 143 44 244 54 19 2 0 5
-43 5 -96 2 -201 -12 -285 -40 -35 -11 -65 -18 -68 -15 -3 2 11 26 31 51 30
39 32 45 13 35 -93 -49 -228 -158 -228 -183 0 -18 -100 -88 -116 -82 -8 3 -23
0 -34 -6 -16 -10 -23 -8 -46 12 l-26 25 4 -81 c4 -64 1 -89 -12 -115 l-18 -33
-10 70 c-6 38 -14 91 -17 117 -4 27 -9 47 -11 44 -10 -10 -42 -138 -49 -198
l-8 -64 -15 40 c-12 30 -16 78 -16 190 0 137 2 157 27 231 30 92 15 82 182
118 204 45 429 62 616 47 231 -19 210 -4 -36 25 -216 25 -502 5 -652 -47 -31
-10 -58 -17 -60 -15 -6 6 42 99 98 189 27 43 49 83 49 88 0 5 -11 4 -26 -1
-49 -19 -148 -6 -115 15 14 8 252 7 296 -1 23 -4 35 -15 48 -44 28 -60 76 -84
167 -85 41 -1 88 -7 105 -14 45 -19 90 -6 124 36 l30 36 73 -21 c40 -11 74
-19 76 -18 2 2 -23 14 -56 27 l-59 23 24 34 c27 40 30 105 8 166 -13 36 -12
41 12 77 53 81 34 186 -43 238 -29 20 -46 24 -100 23 -36 -1 -78 -9 -93 -17
-34 -17 -75 -64 -101 -115 -12 -23 -37 -48 -63 -63 -71 -42 -127 -139 -127
-222 l0 -45 -39 0 c-21 0 -66 3 -100 6 l-61 7 40 34 c46 39 54 65 12 34 -34
-24 -76 -36 -93 -25 -7 4 13 15 50 26 72 22 127 72 155 140 10 24 24 55 32 70
19 35 18 51 -6 95 -11 21 -20 43 -20 50 0 26 -91 91 -157 112 -78 24 -297 51
-428 51 -88 0 -89 1 -67 18 29 22 210 114 279 141 l53 21 5 -28 c16 -76 60
-126 150 -170 113 -56 191 -67 470 -67 231 0 262 2 405 28 352 64 624 153 765
251 28 19 50 35 50 35 0 1 -1 -17 -3 -39z m-2592 -15 c0 -8 -27 -56 -60 -107
-34 -51 -86 -144 -118 -206 -57 -113 -72 -127 -96 -89 -9 14 -1 38 44 125 30
58 86 153 123 209 61 91 71 102 88 93 10 -6 19 -17 19 -25z m1438 -437 c18
-18 14 -63 -7 -82 -47 -42 -103 15 -67 68 18 28 54 34 74 14z m-622 -466 c-13
-21 -42 -75 -65 -120 l-41 -81 -82 -42 c-82 -40 -137 -79 -212 -148 -33 -31
-37 -32 -26 -11 51 101 209 269 295 313 28 14 72 48 100 76 27 28 51 51 52 51
2 0 -8 -17 -21 -38z m-134 -274 c-5 -7 -19 -49 -31 -93 -15 -53 -37 -102 -67
-148 -25 -37 -62 -104 -83 -149 l-38 -82 -7 56 c-4 31 -5 74 -2 95 5 33 1 27
-34 -42 -22 -44 -40 -85 -40 -91 0 -7 -8 -14 -18 -16 -42 -11 -59 -269 -27
-419 24 -116 44 -179 59 -179 12 0 67 -131 72 -170 1 -8 5 -23 9 -32 14 -33
-2 -18 -38 36 -94 141 -159 313 -179 470 -19 152 12 355 79 522 26 67 72 116
146 157 104 59 180 95 201 96 5 1 4 -5 -2 -11z m587 -132 c-28 -26 -99 -73
-103 -69 -13 13 -4 24 42 47 41 22 73 33 61 22z m2053 -243 c-10 -28 -10 -28
-11 12 -1 28 2 36 10 28 8 -8 8 -19 1 -40z m-3496 -183 c72 -233 153 -418 257
-586 160 -258 321 -424 639 -658 13 -9 -9 -1 -47 19 -137 68 -406 291 -551
455 -171 192 -298 461 -356 750 -17 86 -18 110 -9 135 16 39 22 28 67 -115z
m1021 63 c-3 -10 -5 -4 -5 12 0 17 2 24 5 18 2 -7 2 -21 0 -30z m2362 -75
l-12 -43 -12 35 c-10 31 -9 39 9 67 20 32 21 32 24 8 2 -13 -2 -43 -9 -67z
m-2333 -934 c59 -28 144 -103 144 -126 0 -21 -29 -50 -44 -45 -6 2 -17 19 -24
38 -11 30 -12 31 -9 6 3 -17 -3 -36 -14 -50 -23 -28 -49 -15 -65 34 l-12 34
-3 -30 c-6 -43 -37 -44 -78 -3 -39 39 -96 147 -84 158 27 26 118 19 189 -16z
m1997 -56 l38 -19 -33 -47 c-74 -109 -163 -181 -190 -154 -8 8 -4 23 14 54 14
24 29 54 32 68 4 14 -6 2 -23 -26 -54 -93 -128 -138 -161 -99 -10 12 -9 25 7
70 24 65 12 63 -22 -4 -27 -55 -55 -68 -87 -42 -24 20 -21 45 12 99 23 37 63
64 140 93 112 42 199 45 273 7z m-1184 -54 c65 -19 84 -38 106 -103 18 -57 14
-95 -11 -105 -31 -12 -49 4 -77 65 -31 65 -48 77 -22 15 23 -55 16 -98 -17
-110 -38 -13 -75 14 -103 79 -13 29 -29 56 -34 59 -6 4 -2 -13 9 -36 24 -53
24 -62 4 -83 -25 -24 -52 -10 -136 73 -75 73 -77 77 -60 95 63 70 206 92 341
51z m-435 -434 c161 -55 399 -91 612 -93 79 -1 144 -2 144 -4 0 -8 -137 -42
-195 -48 -110 -10 -383 34 -425 70 -8 7 -52 24 -97 39 -45 15 -87 34 -93 42
-16 18 -14 18 54 -6z"/>
<path d="M3089 3381 c-19 -19 -29 -40 -29 -59 0 -18 -6 -32 -16 -36 -14 -5
-16 -16 -11 -59 4 -29 14 -75 23 -102 l17 -49 12 39 11 40 23 -43 c12 -24 40
-63 61 -85 21 -23 43 -61 50 -84 11 -36 19 -45 56 -60 24 -10 44 -21 44 -25 0
-3 -24 -20 -53 -36 -29 -16 -59 -38 -67 -47 -8 -10 12 -1 44 20 33 21 103 55
155 76 53 21 90 38 83 39 -9 0 -6 10 10 33 35 48 33 145 -4 209 -28 46 -110
108 -144 108 -9 0 -41 28 -72 61 -86 93 -142 110 -193 60z m165 -72 c45 -53
24 -100 -29 -65 -18 12 -25 25 -25 50 0 55 16 60 54 15z"/>
<path d="M3470 2781 c-23 -7 -21 -8 15 -14 22 -4 65 -7 95 -7 51 1 53 2 36 15
-21 16 -101 19 -146 6z"/>
<path d="M2903 2685 c-13 -9 -28 -33 -34 -55 -9 -28 -19 -40 -37 -45 -31 -8
-34 -4 -42 48 l-7 42 -8 -52 c-7 -49 -10 -53 -34 -53 -33 0 -47 9 -55 38 -9
26 -61 56 -83 48 -11 -4 -14 -16 -11 -37 6 -41 -14 -48 -55 -20 l-32 23 33
-32 c38 -35 65 -36 70 -2 4 30 30 28 44 -3 10 -23 37 -36 103 -47 19 -3 20
-11 20 -143 -1 -129 -3 -144 -25 -190 -42 -85 -170 -144 -252 -116 l-33 11 25
-20 c25 -19 50 -24 121 -20 25 1 38 -4 42 -14 10 -25 69 -56 108 -56 47 0 99
35 122 81 l18 37 63 -5 c68 -6 128 14 146 47 9 16 7 16 -27 -1 -55 -28 -128
-25 -194 9 -80 40 -89 64 -89 237 l0 141 43 19 c29 14 48 32 63 60 11 22 28
41 37 43 20 4 22 13 5 30 -15 15 -19 15 -45 -3z"/>
<path d="M2995 2644 c-11 -8 -28 -13 -37 -10 -19 4 -25 -9 -8 -19 16 -10 49 4
60 26 13 23 11 23 -15 3z"/>
<path d="M2318 2543 c6 -2 18 -2 25 0 6 3 1 5 -13 5 -14 0 -19 -2 -12 -5z"/>
<path d="M3138 2443 c6 -2 18 -2 25 0 6 3 1 5 -13 5 -14 0 -19 -2 -12 -5z"/>
<path d="M3169 2289 c194 -121 315 -275 387 -494 28 -88 31 -55 3 51 -49 188
-184 357 -359 448 -105 55 -122 52 -31 -5z"/>
<path d="M2364 2250 c-150 -85 -275 -261 -299 -418 -4 -26 0 -19 14 23 40 121
123 232 254 341 45 38 84 69 86 71 2 2 2 5 0 8 -3 2 -28 -9 -55 -25z"/>
<path d="M2936 2051 c-4 -13 -24 -41 -43 -62 -67 -74 -161 -73 -240 4 -48 46
-55 40 -18 -15 27 -40 96 -78 141 -78 17 0 53 12 81 26 41 20 56 35 73 69 12
25 20 53 18 62 -3 15 -6 14 -12 -6z"/>
<path d="M3056 1703 c-106 -57 -297 -92 -411 -76 -76 11 -93 9 -51 -7 48 -18
156 -31 209 -24 94 11 211 56 267 103 30 24 25 26 -14 4z"/>
<path d="M3175 4787 c24 -14 248 -97 252 -93 6 6 -122 64 -186 85 -72 23 -96
26 -66 8z"/>
</g>
</svg>
