<?xml version="1.0" standalone="no"?>
<!DOCTYPE svg PUBLIC "-//W3C//DTD SVG 20010904//EN"
 "http://www.w3.org/TR/2001/REC-SVG-20010904/DTD/svg10.dtd">
<svg version="1.0" xmlns="http://www.w3.org/2000/svg"
 width="1024.000000pt" height="576.000000pt" viewBox="0 0 1024.000000 576.000000"
 preserveAspectRatio="xMidYMid meet">
<metadata>
Created by potrace 1.16, written by Peter Selinger 2001-2019
</metadata>
<g transform="translate(0.000000,576.000000) scale(0.100000,-0.100000)"
fill="#000000" stroke="none">
<path d="M0 2880 l0 -2880 5120 0 5120 0 0 2880 0 2880 -5120 0 -5120 0 0
-2880z m6373 2376 c19 -15 6 -33 -14 -20 -7 4 -44 6 -84 5 -82 -3 -135 7 -113
20 22 15 191 10 211 -5z m-2588 -6 c3 -5 -1 -10 -9 -10 -9 0 -16 5 -16 10 0 6
4 10 9 10 6 0 13 -4 16 -10z m1448 -4 c79 -23 -23 -40 -202 -35 -132 4 -177
20 -100 36 52 11 262 10 302 -1z m4217 4 c0 -5 -4 -10 -10 -10 -5 0 -10 5 -10
10 0 6 5 10 10 10 6 0 10 -4 10 -10z m-2300 -10 c0 -5 7 -7 15 -4 8 4 15 2 15
-4 0 -13 -100 -25 -147 -16 -52 9 -62 17 -33 25 38 11 150 10 150 -1z m590 0
c24 -7 24 -8 5 -16 -25 -11 -153 -11 -180 0 -19 8 -19 9 5 16 14 5 52 8 85 8
33 0 71 -3 85 -8z m745 0 c27 -6 28 -8 10 -16 -26 -11 -155 -11 -180 0 -19 8
-19 9 5 16 31 10 125 10 165 0z m-2451 -34 c-3 -8 -19 -19 -35 -25 -16 -5 -46
-26 -67 -45 -40 -39 -70 -49 -53 -18 19 36 90 87 132 95 13 2 25 5 26 6 1 0 0
-5 -3 -13z m534 -18 c33 -20 74 -68 85 -100 10 -28 -1 -22 -53 31 -27 27 -58
52 -69 56 -12 3 -21 11 -21 16 0 6 -4 8 -9 5 -5 -3 -12 1 -15 9 -7 20 35 11
82 -17z m-134 -9 c88 -27 154 -81 193 -158 53 -102 55 -98 -113 -161 -81 -30
-150 -56 -153 -58 -4 -1 -13 14 -20 34 -18 50 -45 74 -84 74 -75 0 -104 -66
-48 -113 16 -13 69 -36 117 -52 187 -58 289 -126 346 -232 52 -95 55 -225 8
-330 -60 -137 -236 -233 -425 -233 -187 0 -330 77 -389 210 -44 97 -44 96 129
152 83 26 156 48 163 48 6 0 12 -8 12 -18 0 -27 42 -62 81 -68 77 -12 125 42
79 91 -12 12 -74 44 -138 70 -226 92 -280 132 -334 244 -28 58 -32 76 -31 146
0 59 6 96 23 140 45 117 171 213 307 235 78 12 203 3 277 -21z m3134 5 c172
-43 325 -168 400 -324 53 -110 66 -182 60 -323 -5 -94 -10 -125 -37 -192 -77
-197 -243 -336 -454 -379 -352 -73 -685 127 -763 460 -23 98 -15 274 16 368
104 306 442 476 778 390z m-5753 6 c-170 -8 -242 -29 -350 -102 -166 -111
-255 -287 -255 -509 0 -341 214 -576 560 -614 132 -15 324 37 426 115 55 43
144 151 144 175 0 8 -55 53 -122 101 -111 79 -123 86 -132 69 -24 -41 -82 -98
-120 -117 -93 -47 -244 -31 -321 35 -100 86 -130 260 -66 385 62 121 208 180
337 136 61 -21 97 -48 131 -98 15 -23 28 -43 30 -45 3 -4 35 25 171 151 l74
68 -21 32 c-31 52 -111 124 -171 157 -61 34 -62 42 -1 12 54 -28 120 -86 164
-143 20 -28 37 -53 37 -58 0 -4 -57 -59 -127 -123 l-127 -116 -19 32 c-63 105
-165 151 -282 127 -131 -27 -215 -135 -215 -274 0 -86 19 -148 61 -199 47 -57
109 -88 184 -95 115 -9 204 33 260 121 l28 44 133 -95 133 -96 -22 -40 c-39
-72 -147 -170 -228 -209 -104 -49 -167 -62 -299 -61 -182 1 -321 55 -436 170
-101 101 -154 211 -174 368 -39 289 110 560 363 663 86 35 125 41 267 40 l125
-1 -140 -6z m1007 -7 c-5 -10 -7 -24 -5 -31 3 -7 0 -19 -6 -26 -7 -8 -14 -24
-16 -36 -6 -32 -12 -35 -25 -11 -6 12 -7 21 -2 21 4 0 8 9 9 20 1 10 12 33 24
50 25 33 34 39 21 13z m-789 -4 c58 -16 40 -19 -23 -4 -30 7 -46 14 -35 14 11
1 37 -4 58 -10z m1320 -197 c38 -108 131 -376 208 -596 76 -219 139 -403 139
-407 0 -6 -86 -8 -197 -7 l-197 3 -18 63 -19 62 -193 0 -192 0 -20 -62 -19
-63 -80 -3 c-44 -1 -127 2 -185 6 l-105 9 181 2 181 1 18 60 18 59 199 3 c125
2 203 -1 208 -7 4 -5 14 -32 22 -60 l14 -50 183 -3 c171 -2 182 -1 177 15 -3
10 -95 275 -204 588 l-199 570 -199 3 -199 2 -37 -107 c-44 -132 -277 -802
-323 -933 -19 -52 -37 -107 -40 -122 -4 -16 -11 -28 -15 -28 -5 0 24 96 65
213 40 116 133 386 207 599 l133 388 210 0 210 0 68 -198z m1917 -406 l0 -603
-187 1 -188 1 -3 603 -2 602 190 0 190 0 0 -604z m624 522 c27 -46 56 -94 65
-108 8 -14 11 -21 5 -17 -5 5 -34 50 -65 100 l-55 92 -177 3 -177 2 0 -590 0
-589 153 -4 152 -3 -162 -2 -163 -2 0 600 0 600 188 0 187 0 49 -82z m686
-524 l0 -606 -97 7 c-54 4 -100 9 -102 11 -2 2 37 4 87 4 l92 0 0 590 0 590
-172 3 -173 3 183 2 182 2 0 -606z m-3208 530 c2 -19 1 -34 -2 -34 -10 0 -29
41 -34 74 -5 27 -4 28 13 12 11 -10 21 -33 23 -52z m-1502 -21 c40 -51 9 -117
-54 -117 -69 0 -98 63 -55 118 29 37 80 36 109 -1z m1160 17 c25 -13 41 -65
30 -95 -19 -51 -104 -59 -129 -11 -35 65 35 140 99 106z m169 -7 c11 -10 24
-32 27 -50 5 -26 1 -37 -19 -57 -15 -15 -38 -26 -52 -26 -14 0 -37 11 -52 26
-20 20 -24 31 -19 57 7 37 39 67 71 67 13 0 32 -8 44 -17z m3254 -15 c22 -26
22 -76 0 -100 -10 -11 -30 -18 -53 -18 -59 0 -89 49 -63 103 24 49 80 56 116
15z m-749 6 c42 -42 25 -116 -28 -122 -44 -5 -72 5 -84 33 -12 25 -3 64 20 92
15 18 73 16 92 -3z m-3669 -29 c14 -13 25 -36 25 -50 0 -14 -11 -37 -25 -50
-13 -14 -36 -25 -50 -25 -29 0 -75 40 -75 65 0 22 27 72 42 78 30 12 60 5 83
-18z m-345 -5 c27 -27 26 -77 -2 -107 -44 -47 -118 -16 -118 49 0 66 76 102
120 58z m4309 -11 c13 -17 21 -33 17 -36 -3 -4 -6 0 -6 8 0 11 -2 11 -8 2 -5
-9 -13 -1 -24 22 -19 43 -11 44 21 4z m-144 -64 c48 -47 22 -125 -42 -127 -59
-2 -94 51 -68 102 28 54 72 64 110 25z m-3656 -37 c12 -32 1 -66 -27 -88 -33
-27 -58 -25 -87 5 -60 59 4 155 78 118 15 -8 32 -24 36 -35z m-654 7 c29 -28
32 -70 9 -103 -19 -27 -78 -30 -106 -5 -27 24 -24 78 7 108 31 32 59 32 90 0z
m1443 -10 c34 -28 52 -32 52 -11 0 16 34 31 50 21 15 -9 12 -41 -5 -55 -12
-10 -18 -10 -30 0 -21 18 -45 5 -45 -24 0 -51 -81 -75 -120 -36 -28 28 -26 75
5 105 31 32 56 31 93 0z m257 0 c50 -49 22 -128 -45 -128 -98 0 -91 148 8 152
7 1 24 -10 37 -24z m2745 5 c6 -11 8 -20 6 -20 -3 0 -10 9 -16 20 -6 11 -8 20
-6 20 3 0 10 -9 16 -20z m-287 -23 c26 -18 33 -81 13 -112 -15 -22 -23 -26
-58 -23 -58 4 -85 41 -68 92 6 20 19 40 28 46 24 13 65 12 85 -3z m730 2 c30
-16 37 -28 37 -68 0 -46 -24 -71 -68 -71 -48 0 -72 24 -72 71 0 29 6 42 26 58
30 24 46 26 77 10z m-413 -29 c6 -11 8 -20 6 -20 -3 0 -10 9 -16 20 -6 11 -8
20 -6 20 3 0 10 -9 16 -20z m30 -50 c6 -11 8 -20 6 -20 -3 0 -10 9 -16 20 -6
11 -8 20 -6 20 3 0 10 -9 16 -20z m-4599 -39 c43 -44 38 -91 -13 -117 -16 -8
-37 -12 -47 -9 -24 7 -52 38 -55 62 -7 39 36 89 77 92 5 1 22 -12 38 -28z
m4502 11 c9 -10 20 -32 23 -49 5 -26 1 -37 -19 -57 -15 -15 -38 -26 -52 -26
-29 0 -75 40 -75 65 0 22 27 72 42 78 28 11 66 6 81 -11z m127 -22 c6 -11 8
-20 6 -20 -3 0 -10 9 -16 20 -6 11 -8 20 -6 20 3 0 10 -9 16 -20z m-3141 -11
c16 -16 21 -30 19 -56 -8 -93 -138 -92 -138 0 0 71 68 103 119 56z m201 -196
l57 -193 -118 0 c-78 0 -119 4 -119 11 0 6 25 95 55 199 30 104 55 192 56 197
1 14 10 -14 69 -214z m162 200 c9 -10 19 -32 23 -50 5 -27 2 -37 -19 -58 -31
-30 -64 -32 -100 -4 -34 27 -35 71 -1 104 29 29 75 33 97 8z m2486 -10 c-5
-26 -38 -29 -38 -4 0 15 6 21 21 21 14 0 19 -5 17 -17z m322 -33 c6 -11 8 -20
6 -20 -3 0 -10 9 -16 20 -6 11 -8 20 -6 20 3 0 10 -9 16 -20z m-405 -15 c28
-27 31 -51 13 -90 -20 -45 -88 -47 -121 -4 -17 24 -18 31 -7 63 19 60 73 74
115 31z m729 14 c37 -17 48 -59 28 -101 -14 -27 -24 -34 -53 -36 -76 -6 -112
76 -55 125 31 26 44 28 80 12z m-294 -49 c6 -11 8 -20 6 -20 -3 0 -10 9 -16
20 -6 11 -8 20 -6 20 3 0 10 -9 16 -20z m-4343 -16 c-3 -3 -12 -4 -19 -1 -8 3
-5 6 6 6 11 1 17 -2 13 -5z m86 -1 c-7 -2 -19 -2 -25 0 -7 3 -2 5 12 5 14 0
19 -2 13 -5z m4178 -32 c43 -44 38 -91 -13 -117 -24 -12 -36 -13 -58 -4 -53
22 -60 80 -17 128 28 30 53 28 88 -7z m109 -1 c6 -11 8 -20 6 -20 -3 0 -10 9
-16 20 -6 11 -8 20 -6 20 3 0 10 -9 16 -20z m-4740 -10 c24 -24 26 -67 4 -98
-18 -27 -84 -31 -108 -6 -20 20 -20 73 0 102 20 29 76 30 104 2z m1455 -5 c31
-30 32 -64 4 -99 -17 -22 -28 -26 -57 -24 -51 4 -75 40 -62 90 17 61 72 77
115 33z m456 15 c11 -6 25 -25 33 -43 11 -27 11 -36 0 -58 -24 -48 -90 -55
-124 -12 -26 33 -20 68 16 101 28 24 46 27 75 12z m-1651 -4 c0 -2 -8 -10 -17
-17 -16 -13 -17 -12 -4 4 13 16 21 21 21 13z m4528 -77 c-2 -5 -12 5 -22 23
l-19 33 22 -23 c12 -12 21 -27 19 -33z m-4073 0 c-22 -22 -49 -45 -60 -51 -11
-6 5 12 35 40 66 62 79 68 25 11z m3871 -239 c156 -233 175 -262 157 -245 -6
6 -82 116 -169 245 l-159 235 -5 -290 -5 -290 -3 309 c-2 300 -1 308 16 285
10 -13 86 -125 168 -249z m-313 232 c60 -66 -6 -163 -83 -122 -33 17 -43 47
-30 85 6 19 19 39 28 45 27 15 68 12 85 -8z m747 -2 c12 -12 20 -33 20 -55 0
-84 -110 -106 -138 -27 -25 71 66 134 118 82z m-3600 -106 c15 -38 12 -53 -15
-79 -30 -30 -64 -32 -99 -4 -65 51 4 160 77 122 15 -8 32 -25 37 -39z m564 24
c17 -23 21 -75 8 -94 -11 -16 -48 -34 -71 -34 -12 0 -31 10 -42 21 -17 17 -20
29 -16 62 7 48 28 67 73 67 23 0 38 -7 48 -22z m2779 -10 c9 -11 17 -35 17
-53 0 -36 -21 -60 -62 -70 -22 -6 -33 -1 -59 24 -25 26 -30 37 -24 59 17 69
84 90 128 40z m-4734 -4 c28 -35 26 -69 -4 -99 -29 -30 -64 -32 -95 -7 -27 22
-30 71 -5 108 22 34 76 33 104 -2z m2516 -102 c11 -6 14 -12 7 -12 -8 0 -35
21 -61 48 -36 36 -37 38 -6 11 22 -20 49 -41 60 -47z m2343 19 c-2 -9 -12 -20
-24 -25 -20 -9 -20 -9 3 -32 33 -33 31 -86 -3 -113 -30 -24 -43 -26 -77 -10
-55 25 -50 110 8 139 17 8 31 22 33 30 4 21 31 40 48 33 8 -3 14 -13 12 -22z
m-622 11 c16 -11 34 -48 34 -72 0 -28 -44 -70 -73 -70 -38 0 -70 32 -70 68 0
48 27 82 66 82 17 0 37 -4 43 -8z m758 -14 c23 -33 20 -83 -6 -108 -38 -35
-90 -25 -114 22 -28 53 6 108 67 108 28 0 42 -6 53 -22z m-4910 -49 c57 -45
15 -150 -54 -134 -63 15 -80 87 -29 129 37 31 49 32 83 5z m1232 -2 c52 -45
26 -127 -40 -127 -73 0 -103 74 -51 125 30 31 56 32 91 2z m674 13 c10 -5 24
-26 30 -46 11 -32 10 -39 -7 -63 -27 -35 -83 -41 -112 -12 -59 59 16 160 89
121z m-1261 -26 c28 -35 26 -69 -4 -99 -57 -57 -140 -6 -115 70 20 60 83 75
119 29z m747 18 c37 -24 43 -86 12 -119 -42 -45 -121 -16 -121 45 0 48 27 82
66 82 17 0 37 -4 43 -8z m185 -11 c31 -25 30 -88 -1 -113 -63 -51 -152 20
-115 92 23 44 76 54 116 21z m183 -3 c48 -67 -13 -151 -89 -122 -22 9 -43 55
-36 81 17 62 93 87 125 41z m-464 8 c0 -2 -7 -9 -15 -16 -12 -10 -15 -10 -15
4 0 9 7 16 15 16 8 0 15 -2 15 -4z m3085 -82 c9 -15 12 -23 6 -20 -11 7 -35
46 -28 46 3 0 12 -12 22 -26z m-4215 -43 c22 -42 -16 -101 -67 -101 -85 0 -98
105 -18 148 15 8 26 6 47 -10 16 -10 32 -27 38 -37z m345 -4 c32 -76 -52 -142
-113 -89 -37 31 -30 86 14 121 34 27 81 11 99 -32z m3665 -17 c16 -38 2 -80
-32 -99 -21 -12 -31 -12 -56 -2 -43 18 -58 59 -37 100 9 18 26 36 38 40 32 12
73 -6 87 -39z m732 20 c27 -34 23 -84 -8 -109 -32 -25 -52 -26 -82 -5 -35 24
-45 59 -27 95 10 18 11 29 5 29 -6 0 -9 4 -6 9 3 5 27 7 53 5 34 -2 53 -9 65
-24z m-4572 -41 c24 -57 -27 -120 -84 -103 -71 21 -79 111 -13 139 41 17 82 2
97 -36z m850 3 c41 -51 11 -116 -54 -116 -60 0 -88 50 -59 107 25 50 78 55
113 9z m784 12 c39 -38 28 -106 -20 -124 -75 -29 -133 50 -83 114 24 30 78 36
103 10z m-704 -9 c0 -8 -7 -15 -15 -15 -16 0 -20 12 -8 23 11 12 23 8 23 -8z
m550 -11 c0 -16 -16 -19 -25 -4 -8 13 4 32 16 25 5 -4 9 -13 9 -21z m2850
-115 c15 -28 5 -23 -15 7 -9 15 -12 23 -6 20 6 -4 16 -16 21 -27z m-3042 -116
c-49 -2 -127 -2 -175 0 -49 1 -9 3 87 3 96 0 136 -2 88 -3z m-1893 -43 c39
-19 72 -38 73 -42 2 -4 8 -8 12 -8 5 0 28 -13 52 -28 24 -16 71 -41 105 -56
78 -34 267 -74 330 -70 65 4 230 47 281 73 23 12 54 21 69 21 34 0 99 -22 115
-38 7 -7 16 -12 21 -12 14 0 77 -69 77 -84 0 -8 5 -16 12 -18 23 -8 -133 -208
-162 -208 -3 0 -15 -8 -26 -18 -11 -10 -38 -27 -62 -37 -23 -10 -42 -23 -42
-28 0 -4 -4 -6 -9 -3 -4 3 -33 -1 -62 -10 -76 -22 -324 -30 -409 -14 l-68 13
-28 60 c-71 150 -182 315 -308 460 -36 41 -66 78 -66 80 0 10 27 1 95 -33z
m955 24 c-8 -8 -23 -20 -34 -25 -13 -7 -9 -1 9 15 34 29 43 33 25 10z m4540 6
c0 -5 10 -10 23 -10 13 0 32 -7 43 -15 10 -8 27 -15 36 -15 9 0 21 -7 26 -16
5 -9 13 -16 18 -15 5 0 25 -10 44 -21 111 -68 172 -92 308 -122 113 -25 141
-26 252 -2 148 32 175 44 420 184 27 15 61 26 86 26 23 1 37 4 31 8 -8 5 -6 8
6 8 12 0 17 -8 18 -27 1 -17 3 -21 6 -10 2 9 8 17 12 17 11 0 0 -113 -13 -129
-6 -7 -11 -19 -11 -25 -1 -33 -18 -75 -27 -70 -6 4 -8 2 -4 -4 6 -10 -11 -60
-24 -72 -3 -3 -17 -21 -30 -40 -52 -76 -211 -210 -248 -210 -6 0 -23 -7 -38
-15 -16 -8 -39 -15 -51 -15 -13 0 -23 -4 -23 -9 0 -5 -9 -7 -20 -4 -11 3 -20
1 -20 -5 0 -6 -72 -10 -200 -10 -123 1 -200 4 -200 10 0 6 -7 8 -15 4 -8 -3
-15 -1 -15 4 0 6 -10 10 -22 10 -20 0 -125 48 -192 88 -79 47 -225 248 -209
289 4 9 2 14 -3 11 -16 -10 -10 164 6 190 15 23 30 29 30 12z m-5310 -37 c0
-7 -39 17 -46 28 -3 6 5 3 20 -6 14 -10 26 -19 26 -22z m5590 -10 c0 -7 -39
17 -46 28 -3 6 5 3 20 -6 14 -10 26 -19 26 -22z m735 27 c-3 -5 -16 -15 -28
-21 -19 -9 -19 -8 3 10 28 23 34 26 25 11z m-3805 -47 c0 -8 -38 17 -51 33 -9
11 -2 9 19 -6 17 -13 32 -25 32 -27z m620 43 c0 -2 -8 -10 -17 -17 -16 -13
-17 -12 -4 4 13 16 21 21 21 13z m1450 -16 c31 -16 60 -47 89 -94 39 -62 56
-66 274 -66 l194 0 12 -27 c7 -16 13 -30 13 -33 0 -3 4 -13 10 -23 18 -33 0
-56 -58 -73 -45 -13 -94 -15 -272 -12 -250 5 -315 16 -337 59 -8 14 -11 29 -8
33 4 3 -2 6 -11 6 -10 0 -16 6 -13 13 2 6 -2 26 -8 42 -7 17 -11 39 -9 50 2
11 6 38 9 60 12 85 12 85 53 81 21 -2 49 -9 62 -16z m-4373 -76 c146 -28 303
-11 427 45 36 16 66 28 66 25 0 -3 -29 -18 -63 -35 -169 -79 -405 -79 -574 0
-34 17 -63 32 -63 35 0 3 30 -9 66 -25 37 -17 100 -37 141 -45z m2883 61 c0
-12 -106 -57 -167 -71 -91 -21 -245 -14 -328 15 -33 12 -64 26 -69 31 -5 5 23
-2 63 -16 139 -48 334 -39 450 21 52 27 51 27 51 20z m2525 -5 c3 -5 2 -10 -4
-10 -5 0 -13 5 -16 10 -3 6 -2 10 4 10 5 0 13 -4 16 -10z m640 0 c-3 -5 -12
-10 -18 -10 -7 0 -6 4 3 10 19 12 23 12 15 0z m-6506 -88 c80 -79 176 -212
222 -306 22 -44 39 -86 39 -93 0 -17 -20 -16 -44 2 -11 8 -29 15 -40 15 -17 0
-18 2 -6 10 11 7 11 10 2 10 -7 0 -27 13 -45 30 -18 16 -35 30 -38 30 -4 0
-19 17 -35 37 -19 26 -23 35 -11 30 10 -4 17 -2 17 4 0 19 -58 122 -101 178
-22 29 -38 59 -35 66 3 8 1 15 -3 17 -5 2 -12 14 -16 26 -6 22 -5 23 14 12 12
-6 48 -37 80 -68z m3513 58 c12 -11 19 -23 15 -26 -4 -4 -2 -13 3 -19 9 -11
18 -63 22 -125 5 -72 3 -75 -74 -93 -62 -13 -132 -16 -458 -13 -285 1 -396 6
-426 15 -41 13 -42 14 -37 55 5 40 38 82 66 83 7 1 53 4 103 8 95 7 238 -8
262 -28 15 -12 104 -11 112 2 3 5 34 15 70 21 74 13 186 63 245 108 47 37 68
39 97 12z m2413 4 c54 -22 176 -44 250 -44 74 0 196 22 250 44 21 9 40 15 42
12 6 -6 -75 -36 -141 -51 -124 -30 -332 -10 -423 39 -37 20 -25 20 22 0z
m-4282 -26 c-6 -10 -414 -10 -430 0 -6 4 89 7 212 7 123 0 221 -3 218 -7z
m227 -5 c25 2 57 7 72 11 19 4 31 1 40 -10 7 -9 27 -32 45 -50 l31 -34 149 0
148 0 35 -33 c40 -37 80 -86 80 -98 0 -5 -23 -15 -52 -24 -43 -12 -123 -15
-477 -15 -409 0 -426 -1 -468 -21 -45 -22 -101 -89 -122 -149 -29 -78 -32 -81
-75 -78 -48 3 -115 59 -98 81 5 6 10 19 10 27 1 17 15 74 33 139 13 47 20 57
83 128 l39 43 151 0 c131 0 155 3 183 19 17 11 34 30 38 43 11 33 21 37 69 26
22 -5 61 -7 86 -5z m627 5 c-16 -10 -414 -10 -420 0 -3 4 93 7 213 7 120 0
213 -3 207 -7z m1566 0 c-2 -5 -94 -8 -203 -8 -109 0 -201 3 -203 8 -3 4 89 7
203 7 114 0 206 -3 203 -7z m574 0 c-16 -10 -394 -10 -400 0 -3 4 89 7 203 7
114 0 203 -3 197 -7z m736 0 c-2 -5 -87 -8 -188 -8 -101 0 -186 3 -188 8 -3 4
82 7 188 7 106 0 191 -3 188 -7z m-6060 -15 c-7 -2 -19 -2 -25 0 -7 3 -2 5 12
5 14 0 19 -2 13 -5z m62 -78 l30 -13 -30 -1 c-16 -1 -40 -4 -52 -7 -19 -5 -23
-2 -23 15 0 25 29 27 75 6z m4730 -60 c9 -36 16 -67 14 -68 -35 -24 -81 -31
-228 -35 -133 -3 -176 -1 -228 13 -73 20 -78 33 -41 110 l22 45 222 0 221 0
18 -65z m551 48 c7 -10 14 -26 14 -35 0 -10 4 -18 9 -18 11 0 20 -45 12 -57
-20 -29 -81 -38 -251 -38 -144 0 -183 3 -221 18 -47 18 -47 18 -36 50 5 18 17
47 26 65 l16 32 209 0 c187 0 210 -2 222 -17z m-479 -75 c-3 -8 -6 -5 -6 6 -1
11 2 17 5 13 3 -3 4 -12 1 -19z m-4987 -96 c0 -22 65 -76 130 -111 54 -28 119
-88 144 -133 17 -33 17 -33 -2 -11 -27 30 -92 73 -111 73 -19 0 47 -63 123
-117 68 -48 141 -119 176 -169 31 -44 104 -186 115 -221 5 -20 4 -21 -28 -11
-31 9 -36 17 -57 80 -26 79 -80 154 -134 186 -20 12 -36 20 -36 18 0 -2 16
-30 35 -62 31 -51 59 -115 79 -180 6 -21 3 -21 -116 -27 -113 -5 -258 -33
-276 -53 -4 -4 4 -4 18 0 45 12 274 25 347 19 l72 -6 7 -46 c10 -70 20 -80 28
-27 4 25 4 51 1 57 -5 7 7 9 35 7 42 -3 42 -3 61 -63 39 -121 59 -238 59 -345
0 -71 -3 -100 -10 -90 -5 8 -10 36 -10 61 0 55 -28 200 -41 214 -5 5 -9 -3 -9
-20 0 -17 -9 -55 -19 -85 l-18 -55 -8 60 c-4 33 -11 68 -17 79 -9 16 -12 15
-34 -18 l-25 -37 -27 19 c-92 65 -256 119 -390 127 l-67 5 70 -14 c152 -30
223 -58 353 -139 l62 -39 -20 -29 c-28 -38 -39 -44 -46 -22 -12 38 -38 94 -45
99 -4 2 -7 -51 -7 -118 1 -98 -3 -135 -19 -180 l-20 -57 29 20 c15 11 34 30
43 41 8 12 17 19 21 16 12 -12 -26 -115 -63 -172 l-38 -57 -3 55 c-2 31 -6 56
-10 56 -4 -1 -19 -20 -34 -43 -44 -69 -114 -142 -172 -181 -30 -20 -57 -36
-60 -36 -4 0 3 18 14 41 12 23 19 43 16 47 -3 3 -36 -15 -73 -40 -38 -24 -81
-53 -97 -63 l-29 -19 7 22 c9 28 -3 28 -48 1 -42 -24 -44 -18 -13 36 43 75 42
78 -11 51 -27 -14 -65 -43 -85 -65 -43 -48 -49 -66 -9 -29 32 30 82 63 82 54
0 -4 -11 -29 -25 -56 -14 -27 -25 -52 -25 -55 0 -3 17 2 38 11 20 9 43 18 50
21 7 3 12 -3 12 -16 0 -12 3 -21 6 -21 3 0 42 26 87 57 55 39 78 51 73 37 -23
-56 -23 -57 32 -36 71 27 144 83 198 153 26 32 48 59 50 59 2 0 -3 -19 -11
-41 -21 -58 -19 -63 16 -42 43 25 87 84 115 151 l24 57 0 -42 c0 -24 4 -43 9
-43 24 0 102 136 122 214 6 25 15 44 19 41 10 -6 26 -107 36 -215 3 -41 11
-86 16 -99 4 -13 7 -26 4 -28 -8 -8 -39 47 -57 100 l-17 51 -6 -39 c-21 -141
-75 -337 -96 -350 -6 -4 -10 17 -11 52 -1 32 -5 72 -9 88 -7 29 -8 29 -9 4 -2
-58 -46 -163 -108 -259 -8 -14 4 -5 28 20 24 25 50 55 57 65 11 19 12 18 6 -5
-8 -34 -43 -83 -112 -160 l-59 -64 -104 -1 c-103 0 -105 -1 -204 -47 -118 -55
-216 -73 -335 -63 -87 8 -129 24 -65 26 22 0 58 6 80 13 37 12 33 13 -55 8
-54 -2 -112 0 -135 7 -98 26 -283 174 -380 303 -29 38 -45 53 -40 38 14 -47
49 -95 129 -177 44 -46 75 -83 70 -83 -16 0 -166 91 -224 136 -58 45 -126 113
-154 154 -9 13 -16 45 -16 70 0 33 -3 41 -10 30 -14 -22 -12 -120 4 -176 l15
-49 -41 45 c-71 79 -116 185 -127 300 -7 69 -8 73 -19 47 -6 -15 -15 -55 -19
-90 l-8 -62 -23 68 c-12 37 -22 84 -22 105 l-1 37 -13 -30 -13 -30 -8 29 c-9
31 -1 181 10 209 6 15 14 6 39 -44 39 -79 59 -89 56 -28 -2 24 -2 60 -1 79 2
33 3 32 21 -23 28 -88 60 -113 60 -46 0 16 3 29 8 29 4 0 27 -32 51 -70 29
-47 71 -95 128 -145 48 -41 87 -74 88 -73 1 2 -2 31 -8 65 -21 124 37 270 147
372 28 25 91 64 150 92 55 26 96 48 89 49 -18 0 -155 -51 -178 -66 -28 -20
-37 -17 -30 7 7 20 6 20 -27 3 -18 -9 -45 -25 -60 -35 -38 -28 -42 -24 -17 21
41 73 64 87 169 104 l95 16 -107 -5 c-59 -3 -128 -12 -154 -20 -27 -8 -50 -12
-52 -10 -2 2 6 18 19 36 13 18 16 29 8 24 -61 -37 -133 -93 -183 -145 -38 -39
-64 -59 -74 -55 -8 3 -21 0 -28 -6 -11 -9 -19 -8 -34 6 -20 18 -20 17 -20 -46
0 -72 -14 -110 -23 -63 -3 16 -9 53 -13 82 -3 30 -10 50 -14 45 -9 -10 -40
-130 -41 -164 -3 -59 -28 61 -28 136 -1 74 28 217 47 237 11 10 196 47 297 59
98 11 265 13 354 5 37 -4 48 -3 31 3 -14 4 -79 14 -145 21 -174 19 -399 2
-482 -36 -17 -7 -34 -14 -37 -14 -9 0 27 70 77 153 l42 67 62 0 c58 0 63 -2
77 -28 26 -51 53 -67 115 -68 31 0 73 -6 93 -13 31 -10 42 -10 67 3 16 9 34
23 39 32 8 14 16 15 55 6 26 -5 44 -6 41 -1 -3 5 -11 9 -18 9 -25 0 -35 24
-20 44 17 24 18 81 3 124 -9 27 -8 36 10 61 24 33 27 93 8 130 -23 46 -62 66
-124 63 -67 -3 -92 -17 -124 -69 -13 -21 -51 -65 -85 -98 -51 -50 -63 -68 -72
-110 -6 -27 -8 -53 -6 -57 3 -4 -27 -8 -67 -8 l-73 0 27 28 c15 15 27 32 27
36 0 4 15 25 33 46 17 21 40 62 50 92 l19 53 -29 55 c-24 46 -37 59 -83 83
-61 30 -160 45 -325 50 -52 1 -95 5 -95 10 0 10 240 128 250 122 4 -2 10 -17
13 -33 21 -104 202 -172 456 -172 158 1 377 36 566 90 61 17 124 35 140 39 39
11 183 80 190 92 10 15 25 10 25 -9z m6226 -106 l34 -34 0 -1412 c0 -1234 -2
-1416 -15 -1444 -32 -66 137 -61 -2018 -64 -2153 -3 -2002 -7 -2040 57 -16 27
-17 128 -17 1440 0 1029 3 1417 11 1435 27 59 -108 56 2042 56 l1969 0 34 -34z
m-7102 -222 c21 -8 21 -58 0 -75 -35 -29 -71 32 -39 65 19 18 18 18 39 10z
m-369 -204 c-3 -5 -14 -10 -23 -9 -14 0 -13 2 3 9 27 11 27 11 20 0z m-45 -70
c19 -6 12 -8 -30 -8 -39 -1 -49 2 -35 8 24 10 33 10 65 0z m-94 -168 c-31 -62
-39 -70 -93 -96 -33 -15 -84 -51 -114 -78 -30 -28 -47 -46 -39 -40 27 18 129
71 166 87 25 10 33 11 27 3 -6 -7 -16 -36 -23 -65 -6 -28 -26 -73 -43 -100
-17 -26 -46 -77 -63 -113 l-33 -65 -1 65 c-1 60 -2 64 -16 45 -8 -11 -23 -41
-32 -67 -9 -27 -22 -48 -29 -48 -32 0 -38 -251 -9 -368 10 -40 24 -78 30 -85
15 -15 71 -155 64 -162 -10 -11 -99 157 -127 241 -68 202 -46 411 65 623 48
92 148 202 212 232 26 12 55 31 65 41 30 31 29 21 -7 -50z m340 -257 c-11 -8
-22 -12 -25 -9 -6 6 19 24 34 24 6 -1 1 -7 -9 -15z m1518 -273 c-7 -33 -24
-44 -24 -16 0 18 20 58 26 51 2 -2 1 -18 -2 -35z m-1791 -716 c47 -17 115 -63
128 -87 12 -24 1 -49 -22 -49 -13 0 -19 8 -20 23 -1 17 -3 15 -8 -8 -8 -37
-40 -41 -57 -7 -11 23 -11 23 -17 2 -5 -18 -8 -19 -32 -8 -35 16 -102 128 -83
139 19 13 68 10 111 -5z m1486 -37 c69 -15 76 -27 44 -75 -37 -56 -64 -84 -97
-101 -41 -22 -52 -4 -25 43 l23 39 -42 -46 c-43 -48 -70 -62 -93 -48 -11 6
-11 17 -2 51 8 33 8 38 -1 24 -6 -10 -20 -30 -32 -44 -17 -21 -23 -23 -42 -13
-12 6 -22 16 -22 22 0 18 27 63 52 85 21 19 110 56 163 67 11 3 21 5 22 6 1 0
24 -4 52 -10z m-828 -63 c24 -10 42 -27 53 -50 21 -44 21 -92 0 -100 -22 -8
-31 -1 -54 45 -23 44 -35 52 -20 13 16 -41 12 -72 -10 -79 -30 -9 -60 12 -79
58 l-18 42 1 -45 c1 -66 -21 -64 -97 9 l-62 60 21 21 c49 50 179 63 265 26z"/>
<path d="M6112 5175 c-107 -30 -202 -109 -245 -203 -33 -72 -31 -219 3 -287
53 -105 108 -145 336 -239 130 -54 154 -73 154 -121 0 -43 -29 -65 -88 -65
-42 0 -102 23 -102 38 0 5 -6 16 -13 26 -12 17 -21 15 -159 -28 l-147 -47 14
-45 c28 -94 82 -151 190 -200 50 -23 78 -28 165 -32 59 -2 130 1 160 7 127 26
237 107 287 210 24 49 27 68 28 151 0 84 -3 102 -28 151 -30 62 -112 146 -173
177 -21 11 -91 37 -154 57 -165 55 -212 106 -156 172 20 23 32 28 70 27 54 -1
80 -21 97 -71 6 -19 16 -32 23 -30 6 2 70 26 143 53 149 55 143 46 95 144 -32
64 -102 122 -177 146 -71 23 -256 28 -323 9z m195 -67 c48 -45 18 -128 -47
-128 -63 0 -91 71 -49 124 25 32 64 34 96 4z m186 -60 c40 -47 8 -121 -53
-121 -57 0 -91 54 -64 104 26 51 80 59 117 17z m-363 2 c28 -28 26 -75 -5
-105 -30 -30 -54 -31 -89 -4 -36 28 -32 95 8 121 21 14 66 8 86 -12z m-71
-176 c12 -15 21 -37 21 -49 0 -78 -113 -102 -140 -29 -29 76 70 141 119 78z
m90 -150 c43 -55 17 -124 -48 -124 -72 0 -102 79 -47 127 36 30 69 29 95 -3z
m168 -86 c48 -45 18 -128 -47 -128 -63 0 -91 71 -49 124 25 32 64 34 96 4z
m153 -68 c16 0 34 -43 32 -75 -2 -34 -34 -65 -67 -65 -35 0 -75 37 -75 69 0
32 34 81 56 81 8 0 14 5 14 11 0 6 7 3 16 -5 8 -9 19 -16 24 -16z m84 -151
c55 -26 58 -105 4 -137 -35 -21 -76 -8 -97 30 -24 42 8 99 66 117 1 1 13 -4
27 -10z m-424 -169 c45 -45 13 -130 -50 -130 -45 0 -74 33 -66 79 10 64 74 93
116 51z m360 -20 c41 -41 10 -130 -45 -130 -50 0 -91 53 -75 96 21 54 82 72
120 34z m-176 -49 c67 -74 -29 -177 -101 -109 -27 25 -29 48 -7 89 24 48 74
57 108 20z"/>
<path d="M9222 5170 c-206 -54 -358 -199 -425 -403 -30 -93 -30 -277 0 -372
50 -159 166 -293 315 -364 102 -48 161 -61 283 -61 117 0 179 13 274 56 133
61 223 147 286 271 41 82 55 140 62 244 11 187 -46 340 -176 469 -87 87 -164
131 -277 160 -101 26 -242 26 -342 0z m221 -78 c48 -53 21 -126 -48 -126 -49
0 -79 34 -71 79 11 58 83 86 119 47z m-183 -42 c48 -48 19 -130 -47 -130 -68
0 -98 76 -48 125 29 30 68 32 95 5z m365 -5 c48 -47 23 -125 -39 -125 -76 0
-108 79 -52 127 35 30 61 29 91 -2z m-512 -93 c9 -10 20 -32 23 -49 5 -26 1
-37 -19 -57 -33 -33 -71 -33 -103 0 -28 27 -27 56 2 102 18 28 73 30 97 4z
m660 0 c9 -10 20 -32 23 -49 5 -26 1 -37 -19 -57 -15 -15 -38 -26 -52 -26 -14
0 -37 11 -52 26 -20 20 -24 31 -19 57 9 43 34 67 71 67 18 0 39 -8 48 -18z
m-247 -100 c56 -29 108 -90 129 -152 27 -82 18 -219 -20 -288 -53 -97 -135
-137 -265 -130 -61 4 -87 10 -124 32 -81 47 -126 140 -126 260 0 156 64 256
190 297 45 15 171 4 216 -19z m-518 -38 c51 -35 46 -111 -8 -134 -23 -9 -34
-9 -58 4 -17 9 -33 25 -37 36 -9 30 12 86 38 98 31 15 39 14 65 -4z m857 -9
c40 -39 32 -96 -16 -120 -38 -20 -42 -19 -78 11 -40 33 -40 66 -2 105 36 35
64 37 96 4z m-865 -175 c46 -46 11 -124 -55 -124 -68 0 -95 72 -47 127 21 24
77 22 102 -3z m893 2 c45 -49 24 -116 -40 -128 -26 -5 -37 -1 -58 21 -22 21
-26 32 -21 58 9 43 34 67 71 67 18 0 39 -8 48 -18z m-871 -169 c25 -23 24 -87
-2 -113 -44 -44 -120 -8 -120 57 0 20 8 41 20 53 24 24 77 26 102 3z m848 -3
c27 -27 26 -77 -2 -107 -39 -42 -101 -24 -117 34 -21 71 67 125 119 73z m-785
-130 c20 0 55 -49 55 -77 0 -32 -42 -73 -75 -73 -14 0 -37 11 -52 26 -20 20
-24 31 -19 57 7 35 32 67 53 67 7 0 13 6 14 13 0 10 2 10 6 0 2 -7 11 -13 18
-13z m694 -26 c28 -35 26 -69 -4 -99 -32 -33 -70 -32 -101 2 -20 21 -24 34
-20 57 14 68 85 91 125 40z m-529 -74 c10 -5 24 -26 30 -45 10 -30 9 -40 -4
-60 -30 -45 -107 -45 -128 0 -30 65 40 138 102 105z m379 -16 c62 -79 -34
-170 -104 -99 -29 28 -30 36 -10 75 28 55 81 66 114 24z m-165 -76 c17 -69
-40 -116 -103 -84 -37 20 -50 59 -30 95 36 63 116 56 133 -11z"/>
<path d="M9339 4860 c-63 -11 -101 -32 -141 -80 -56 -64 -79 -175 -58 -276 15
-71 29 -100 66 -138 53 -52 101 -70 189 -70 70 -1 87 3 133 28 95 53 141 160
128 296 -8 79 -36 139 -83 181 -62 54 -143 75 -234 59z m24 -187 c-7 -2 -19
-2 -25 0 -7 3 -2 5 12 5 14 0 19 -2 13 -5z m90 0 c-7 -2 -19 -2 -25 0 -7 3 -2
5 12 5 14 0 19 -2 13 -5z m72 -23 c3 -6 -1 -7 -9 -4 -18 7 -21 14 -7 14 6 0
13 -4 16 -10z m46 -37 c13 -16 12 -17 -3 -4 -10 7 -18 15 -18 17 0 8 8 3 21
-13z"/>
<path d="M6910 4580 l0 -590 175 0 175 0 0 590 0 590 -175 0 -175 0 0 -590z
m225 489 c8 -15 15 -37 15 -47 0 -33 -32 -63 -67 -64 -60 -2 -94 51 -67 103
27 54 94 58 119 8z m-10 -164 c29 -28 32 -70 9 -103 -19 -27 -78 -30 -106 -5
-27 24 -24 78 7 108 31 32 59 32 90 0z m0 -180 c49 -48 20 -125 -47 -125 -44
0 -68 25 -68 71 0 29 6 42 26 58 35 27 59 26 89 -4z m5 -177 c61 -66 -30 -169
-98 -110 -32 27 -33 81 -2 112 27 27 74 26 100 -2z m4 -180 c51 -73 -30 -162
-102 -112 -27 19 -31 88 -5 116 24 27 87 24 107 -4z m1 -181 c22 -32 18 -75
-10 -102 -30 -31 -56 -32 -91 -2 -43 38 -33 107 20 126 29 11 65 1 81 -22z"/>
<path d="M5061 4708 c-29 -93 -81 -279 -81 -293 0 -12 16 -15 95 -15 80 0 95
2 95 16 0 15 -89 315 -95 322 -2 2 -8 -12 -14 -30z"/>
<path d="M2321 3334 c-12 -15 -21 -35 -21 -45 0 -11 -5 -19 -10 -19 -10 0 -9
-10 13 -103 10 -43 12 -46 22 -27 11 20 13 18 46 -31 19 -28 43 -69 54 -90 11
-22 34 -45 53 -54 17 -9 32 -17 32 -19 0 -2 -20 -16 -45 -31 -24 -16 -43 -31
-40 -33 2 -2 18 6 36 18 17 13 63 35 101 49 39 14 68 28 67 31 -2 3 4 16 14
30 21 31 22 110 2 151 -17 32 -89 89 -112 89 -8 0 -38 25 -67 55 -44 47 -57
55 -88 55 -28 0 -42 -7 -57 -26z m145 -65 c13 -27 13 -30 -2 -36 -33 -12 -64
26 -50 62 8 21 34 7 52 -26z"/>
<path d="M2660 2891 l-35 -7 34 -7 c18 -4 45 -7 60 -7 25 1 25 1 7 15 -11 8
-22 14 -25 14 -3 -1 -22 -5 -41 -8z"/>
<path d="M2176 2798 c-21 -29 -21 -59 -1 -52 8 4 15 12 15 20 0 7 9 18 20 24
11 6 18 15 15 21 -10 16 -33 10 -49 -13z"/>
<path d="M1952 2773 c2 -10 11 -17 20 -15 9 1 22 -7 28 -18 13 -25 30 -26 30
-2 0 25 -31 52 -59 52 -16 0 -21 -5 -19 -17z"/>
<path d="M2092 2642 c-1 -176 -10 -207 -73 -249 -33 -22 -54 -28 -96 -28 -45
0 -51 -2 -36 -12 9 -7 38 -13 65 -13 26 0 48 -5 48 -10 0 -6 16 -18 35 -27 50
-24 102 -9 133 37 22 32 27 35 67 32 26 -2 55 3 73 12 46 24 47 35 2 20 -68
-24 -157 8 -187 67 -9 16 -13 68 -12 156 0 72 -3 139 -9 148 -6 12 -9 -33 -10
-133z m38 -262 c0 -5 7 -7 15 -4 24 10 17 -13 -11 -35 -33 -26 -65 -27 -95 -2
l-23 18 23 8 c17 5 26 3 33 -9 14 -25 29 -19 22 9 -5 21 -3 25 15 25 12 0 21
-4 21 -10z"/>
<path d="M2340 2546 c0 -3 26 -19 58 -37 73 -42 179 -148 221 -221 17 -32 43
-88 56 -125 13 -37 24 -60 24 -50 2 32 -49 170 -80 218 -43 68 -136 152 -207
188 -61 31 -72 35 -72 27z"/>
<path d="M1759 2472 c-84 -54 -176 -180 -194 -267 -4 -18 8 -1 29 40 35 70
102 149 185 218 53 44 43 48 -20 9z"/>
<path d="M2205 2320 c-11 -36 -63 -70 -106 -70 -48 0 -76 13 -106 48 -13 15
-23 22 -23 15 0 -20 48 -70 80 -83 44 -18 98 -4 137 35 18 18 33 42 33 54 0
26 -7 27 -15 1z"/>
<path d="M2304 2076 c-46 -33 -167 -61 -261 -60 -68 0 -88 -3 -75 -11 9 -5 60
-10 112 -10 86 1 101 4 161 33 37 17 72 39 79 47 16 19 10 19 -16 1z"/>
<path d="M4655 3375 l-25 -24 0 -1396 c0 -892 4 -1403 10 -1415 5 -10 24 -23
41 -29 46 -16 3853 -16 3898 0 19 7 36 22 42 36 5 14 9 583 9 1414 l0 1390
-25 24 -24 25 -1951 0 -1951 0 -24 -25z m92 -7 c27 -25 29 -45 7 -76 -18 -26
-65 -30 -88 -6 -24 23 -20 70 6 88 30 21 47 20 75 -6z m243 2 c26 -26 25 -50
0 -78 -26 -28 -57 -28 -87 0 -29 27 -29 51 -1 78 28 25 62 26 88 0z m240 0
c11 -11 20 -29 20 -40 0 -27 -35 -60 -64 -60 -24 0 -66 41 -66 63 0 20 43 57
67 57 13 0 32 -9 43 -20z m240 0 c11 -11 20 -29 20 -40 0 -26 -34 -60 -60 -60
-22 0 -70 41 -70 60 0 19 48 60 70 60 11 0 29 -9 40 -20z m240 0 c11 -11 20
-29 20 -40 0 -25 -34 -60 -58 -60 -25 0 -59 26 -65 51 -7 26 32 69 63 69 11 0
29 -9 40 -20z m240 0 c11 -11 20 -29 20 -40 0 -25 -34 -60 -58 -60 -32 0 -62
29 -62 60 0 53 62 78 100 40z m238 4 c28 -19 29 -57 2 -84 -24 -24 -48 -25
-78 -4 -43 30 -16 104 38 104 9 0 26 -7 38 -16z m240 0 c33 -23 27 -73 -10
-94 -25 -13 -31 -13 -55 0 -38 21 -44 71 -11 94 12 9 29 16 38 16 9 0 26 -7
38 -16z m240 0 c33 -23 27 -73 -10 -94 -25 -13 -31 -13 -55 0 -38 21 -44 71
-11 94 12 9 29 16 38 16 9 0 26 -7 38 -16z m240 0 c33 -23 27 -73 -10 -94 -25
-13 -31 -13 -55 0 -38 21 -44 71 -11 94 12 9 29 16 38 16 9 0 26 -7 38 -16z
m240 0 c44 -31 16 -104 -40 -104 -26 0 -58 36 -58 64 0 26 33 56 60 56 9 0 26
-7 38 -16z m240 0 c44 -31 16 -104 -40 -104 -24 0 -58 35 -58 60 0 25 34 60
58 60 10 0 28 -7 40 -16z m247 -9 c14 -13 25 -29 25 -35 0 -19 -48 -60 -70
-60 -26 0 -60 34 -60 60 0 26 34 60 60 60 12 0 32 -11 45 -25z m240 0 c14 -13
25 -29 25 -35 0 -19 -48 -60 -70 -60 -26 0 -60 34 -60 60 0 26 34 60 60 60 12
0 32 -11 45 -25z m244 -1 c27 -34 26 -40 -4 -69 -30 -31 -58 -32 -85 -3 -25
28 -26 52 0 78 28 28 64 25 89 -6z m241 6 c26 -26 25 -48 -2 -77 -27 -28 -48
-29 -82 -2 -32 25 -33 51 -4 79 28 25 62 26 88 0z m232 3 c20 -18 23 -54 8
-84 -15 -28 -74 -26 -94 3 -21 30 -20 47 6 75 25 27 54 29 80 6z m-121 -134
c5 -8 9 -101 9 -206 0 -186 -1 -193 -20 -193 -19 0 -20 7 -20 185 l0 185
-1810 0 -1810 0 0 -1260 0 -1260 1808 0 1807 0 3 628 c1 345 5 635 8 645 3 9
12 17 20 17 12 0 14 -93 14 -653 0 -495 -3 -656 -12 -665 -17 -17 -3659 -17
-3676 0 -18 18 -17 2561 1 2576 7 6 37 12 67 14 30 2 853 3 1829 2 1503 -1
1774 -3 1782 -15z m-3260 -116 c-35 -21 -85 -57 -111 -80 -26 -23 -66 -48 -88
-56 l-42 -15 0 52 c0 48 2 53 47 93 l48 42 105 1 105 0 -64 -37z m184 18 c-57
-20 -123 -53 -175 -86 -19 -13 -48 -26 -65 -30 -29 -6 -28 -5 13 27 75 58 182
107 232 107 l45 0 -50 -18z m1438 12 c-7 -2 -19 -2 -25 0 -7 3 -2 5 12 5 14 0
19 -2 13 -5z m-2089 -29 c19 -18 21 -75 4 -92 -20 -20 -76 -15 -88 7 -34 65
35 135 84 85z m3848 -1 c36 -32 16 -103 -29 -103 -55 0 -83 62 -46 102 20 22
51 23 75 1z m-2432 -27 c182 -16 148 -20 -220 -20 -256 -1 -304 -3 -365 -20
-71 -19 -145 -27 -145 -15 0 8 107 38 195 54 90 17 349 17 535 1z m-100 -35
c50 -5 1 -7 -145 -7 -158 0 -240 -5 -292 -16 -40 -8 -73 -12 -73 -7 0 4 30 12
68 18 37 6 78 12 92 14 41 7 269 5 350 -2z m-105 -36 c-5 -2 -77 -5 -160 -7
-82 -3 -134 -1 -115 2 35 7 294 12 275 5z m-1211 -151 c20 -20 21 -78 1 -94
-22 -18 -66 -15 -82 6 -43 59 30 139 81 88z m3848 -1 c22 -20 24 -66 2 -87
-21 -22 -61 -20 -74 3 -35 66 20 131 72 84z m-112 -469 c0 -352 -1 -375 -17
-372 -17 3 -18 30 -21 372 -2 367 0 398 30 380 4 -3 8 -174 8 -380z m-3738
219 c20 -18 23 -54 8 -84 -7 -13 -21 -19 -45 -19 -24 0 -38 6 -45 19 -34 65
30 132 82 84z m3850 0 c36 -32 16 -103 -29 -103 -54 0 -80 52 -47 98 18 26 50
28 76 5z m-2705 -44 c45 -24 98 -83 88 -99 -2 -4 -25 -10 -51 -14 -25 -3 -67
-13 -92 -21 -25 -9 -58 -13 -73 -10 -32 7 -97 -17 -105 -40 -10 -25 -53 -14
-94 22 -19 18 -38 33 -41 33 -19 0 -17 37 3 66 45 65 121 95 235 91 63 -3 92
-9 130 -28z m644 -5 c-86 -14 -98 -14 -86 5 3 7 40 11 88 10 l82 -1 -84 -14z
m873 1 c-6 -14 -25 -14 -71 0 -18 6 -51 -32 -64 -74 -6 -20 -15 -40 -19 -46
-3 -5 -12 -30 -19 -54 -9 -33 -15 -41 -22 -30 -7 11 -9 11 -9 -3 0 -15 -37
-45 -45 -36 -3 2 38 115 84 231 10 26 13 27 90 27 67 0 79 -2 75 -15z m-2662
-202 c21 -19 24 -62 6 -85 -32 -42 -98 -15 -98 39 0 54 54 81 92 46z m3850 0
c20 -18 24 -73 6 -91 -17 -17 -58 -15 -80 5 -24 21 -23 58 2 83 24 24 47 25
72 3z m-2142 -163 c0 -14 -29 -70 -36 -70 -8 0 -1 53 9 68 11 15 27 16 27 2z
m-1708 -87 c37 -33 16 -103 -32 -103 -36 0 -60 23 -60 57 0 54 54 81 92 46z
m3850 0 c37 -33 16 -103 -32 -103 -53 0 -78 62 -40 100 24 24 47 25 72 3z
m-3852 -253 c38 -38 16 -100 -35 -100 -53 0 -76 74 -33 104 30 21 44 20 68 -4z
m3848 4 c32 -22 28 -83 -7 -101 -60 -29 -109 49 -61 97 24 24 38 25 68 4z
m-744 -226 c-4 -18 -17 -77 -30 -130 -27 -108 -28 -118 -14 -118 5 0 7 6 4 14
-7 18 12 30 22 15 5 -8 3 -9 -6 -4 -9 5 -10 2 -5 -14 6 -20 -2 -26 -27 -22 -5
0 -8 -6 -8 -14 0 -8 -14 -17 -32 -20 -45 -9 -148 -2 -147 9 0 5 -6 13 -15 18
-12 6 -13 13 -6 26 5 9 24 61 40 114 l30 96 48 11 c26 5 67 19 92 30 60 26 60
26 54 -11z m-3106 -24 c28 -20 29 -67 1 -95 -35 -35 -89 -4 -89 52 0 27 30 59
55 59 6 0 21 -7 33 -16z m3854 -1 c27 -24 24 -79 -6 -98 -59 -39 -117 44 -66
95 24 24 47 25 72 3z m-1600 -84 c-1 -13 -14 -54 -28 -91 l-26 -68 -84 0 -84
0 19 39 c14 27 34 45 64 60 24 12 62 37 83 56 44 38 60 39 56 4z m-1302 -23
c0 -8 12 -24 26 -35 15 -12 24 -21 21 -21 -3 0 13 -18 35 -40 l41 -40 -156 0
-157 0 23 26 c12 15 28 32 35 40 6 7 12 15 12 18 0 4 12 20 27 36 19 22 35 30
60 30 22 0 33 -5 33 -14z m956 -39 c1 -1 4 -23 6 -49 l6 -48 -94 0 -94 0 0 40
c0 38 1 40 48 54 36 11 121 13 128 3z m-637 -84 c1 -9 -14 -13 -45 -13 -54 0
-56 16 -4 42 33 17 35 17 42 0 3 -9 7 -23 7 -29z m-1267 -20 c26 -23 24 -78
-4 -97 -30 -21 -44 -20 -68 4 -27 27 -26 75 2 94 29 20 47 20 70 -1z m3853 -3
c24 -27 22 -70 -5 -92 -29 -23 -45 -23 -70 2 -27 27 -26 75 2 94 30 21 51 20
73 -4z m-1060 -10 c3 -5 -1 -10 -9 -10 -9 0 -16 5 -16 10 0 6 4 10 9 10 6 0
13 -4 16 -10z m813 -227 c-90 -117 -244 -222 -403 -274 -66 -22 -89 -23 -385
-27 -173 -2 -312 -1 -309 2 3 3 129 10 280 16 345 12 433 30 586 121 71 43
190 153 234 218 31 45 34 47 37 25 2 -18 -10 -43 -40 -81z m-691 91 c-3 -3
-12 -4 -19 -1 -8 3 -5 6 6 6 11 1 17 -2 13 -5z m90 0 c-3 -3 -12 -4 -19 -1 -8
3 -5 6 6 6 11 1 17 -2 13 -5z m148 -33 c-6 -5 -23 -12 -40 -16 l-30 -6 30 15
c35 17 53 20 40 7z m294 -17 c-38 -42 -141 -112 -205 -140 -108 -48 -218 -65
-474 -74 -208 -7 -257 -12 -420 -43 -264 -51 -326 -57 -594 -57 -340 0 -294
15 77 25 202 5 265 13 532 66 182 37 219 41 435 49 312 11 425 40 560 143 30
23 66 45 80 48 14 4 27 7 29 8 3 0 -6 -11 -20 -25z m-466 9 c-7 -2 -21 -2 -30
0 -10 3 -4 5 12 5 17 0 24 -2 18 -5z m357 -34 c-36 -30 -126 -74 -190 -93 -92
-27 -173 -36 -404 -45 -191 -8 -241 -13 -366 -41 -239 -52 -299 -61 -440 -65
l-135 -4 124 9 c130 10 238 28 481 80 125 27 178 32 380 40 292 12 382 31 505
108 57 36 82 42 45 11z m-303 5 c-3 -3 -12 -4 -19 -1 -8 3 -5 6 6 6 11 1 17
-2 13 -5z m-89 -11 c-15 -2 -42 -2 -60 0 -18 2 -6 4 27 4 33 0 48 -2 33 -4z
m271 -13 c-82 -43 -194 -62 -384 -65 l-180 -3 165 8 c91 5 183 13 205 19 l40
9 -35 2 c-26 2 -17 6 39 16 41 7 77 11 81 9 4 -3 25 2 46 9 55 20 65 18 23 -4z
m-3215 -9 c26 -29 18 -82 -15 -100 -24 -13 -29 -13 -53 2 -34 23 -37 78 -4
101 30 21 51 20 72 -3z m3851 -1 c24 -27 22 -70 -5 -92 -29 -23 -45 -23 -70 2
-27 27 -26 75 2 94 30 21 51 20 73 -4z m-237 -198 c-18 -19 -51 -47 -72 -63
-38 -29 -41 -29 -170 -29 l-131 0 56 23 c97 40 182 98 264 181 l80 81 3 -79
c3 -78 2 -80 -30 -114z m-629 184 c-2 -2 -17 -6 -34 -10 -22 -5 -26 -4 -15 4
14 9 59 15 49 6z m-356 -53 c-7 -2 -19 -2 -25 0 -7 3 -2 5 12 5 14 0 19 -2 13
-5z m-2629 -182 c26 -29 18 -82 -15 -100 -24 -13 -29 -13 -53 2 -34 23 -37 78
-4 101 30 21 51 20 72 -3z m3851 -1 c24 -27 22 -70 -5 -92 -29 -23 -45 -23
-70 2 -27 27 -26 75 2 94 30 21 51 20 73 -4z m-2355 -10 c-8 -5 -33 -9 -55 -9
l-40 2 35 7 c19 4 44 8 55 9 16 0 17 -1 5 -9z m-195 -10 c-3 -5 -21 -9 -38 -9
l-32 1 30 8 c43 11 47 11 40 0z m88 3 c-7 -2 -21 -2 -30 0 -10 3 -4 5 12 5 17
0 24 -2 18 -5z m-1379 -246 c19 -26 19 -30 5 -55 -19 -34 -76 -43 -96 -16 -21
28 -16 71 10 89 30 21 56 16 81 -18z m239 5 c38 -34 7 -92 -49 -92 -66 0 -83
86 -22 109 26 9 45 5 71 -17z m240 0 c38 -34 7 -92 -49 -92 -66 0 -83 86 -22
109 26 9 45 5 71 -17z m240 0 c37 -32 8 -92 -45 -92 -28 0 -68 30 -68 51 0 21
22 50 43 58 25 9 44 5 70 -17z m240 0 c37 -32 8 -92 -45 -92 -28 0 -68 30 -68
51 0 21 22 50 43 58 25 9 44 5 70 -17z m249 -5 c34 -53 -44 -115 -94 -74 -53
42 -3 119 62 95 13 -5 28 -15 32 -21z m480 0 c24 -38 -5 -87 -52 -87 -61 0
-85 76 -33 104 29 15 70 7 85 -17z m476 10 c17 -13 15 -62 -4 -81 -34 -35
-104 -10 -104 37 1 54 62 79 108 44z m241 -2 c19 -19 17 -66 -5 -82 -40 -29
-104 -4 -104 41 1 56 67 81 109 41z m242 -1 c17 -21 14 -66 -7 -81 -54 -39
-131 19 -96 74 19 31 80 35 103 7z m244 -7 c8 -12 15 -27 15 -34 0 -22 -39
-53 -67 -53 -54 0 -83 59 -45 92 35 31 73 29 97 -5z m240 0 c8 -12 15 -27 15
-34 0 -22 -39 -53 -67 -53 -54 0 -83 59 -45 92 35 31 73 29 97 -5z m244 -9
c21 -37 -6 -78 -51 -78 -58 0 -90 58 -50 92 38 33 77 28 101 -14z m234 14 c36
-31 7 -92 -45 -92 -58 0 -90 58 -50 92 33 29 60 29 95 0z m225 12 c25 -17 31
-71 10 -92 -21 -21 -75 -15 -92 10 -21 29 -20 40 5 72 23 30 45 33 77 10z
m-2394 -10 c51 -51 -29 -124 -88 -81 -21 16 -24 60 -6 82 16 20 74 19 94 -1z
m477 6 c23 -13 26 -62 3 -84 -8 -9 -28 -16 -44 -16 -37 0 -60 24 -60 60 0 44
53 65 101 40z"/>
<path d="M7633 1363 c9 -2 23 -2 30 0 6 3 -1 5 -18 5 -16 0 -22 -2 -12 -5z"/>
<path d="M7818 1103 c6 -2 18 -2 25 0 6 3 1 5 -13 5 -14 0 -19 -2 -12 -5z"/>
</g>
</svg>
